<svg width="34" height="34" viewBox="0 0 34 34" fill="none" xmlns="http://www.w3.org/2000/svg">
<rect width="15" height="15" fill="#696969"/>
<rect x="15" width="15" height="15" fill="#555555"/>
<rect x="15" y="15" width="15" height="15" fill="#C4C4C4" fill-opacity="0.27"/>
<rect y="15" width="15" height="15" fill="#555555"/>
<path d="M8.02148 7.42383H10.4004V8.44922H8.02148V11.1445H6.93164V8.44922H4.55273V7.42383H6.93164V4.93359H8.02148V7.42383Z" fill="white"/>
<path d="M11.7715 18.082C11.7559 18.2461 11.6973 18.3711 11.5957 18.457C11.502 18.5352 11.3926 18.6172 11.2676 18.7031C11.1035 18.9453 10.9277 19.1797 10.7402 19.4062C10.5605 19.6328 10.373 19.8594 10.1777 20.0859C9.99023 20.3047 9.80273 20.5312 9.61523 20.7656C9.43555 20.9922 9.27148 21.2305 9.12305 21.4805C8.94336 21.6133 8.7832 21.7617 8.64258 21.9258C8.50195 22.082 8.36523 22.2461 8.23242 22.418C8.09961 22.582 7.9668 22.7539 7.83398 22.9336C7.70898 23.1055 7.57617 23.2695 7.43555 23.4258C7.48242 23.6133 7.56445 23.7617 7.68164 23.8711C7.79883 23.9805 7.92773 24.082 8.06836 24.1758C8.20898 24.2617 8.3457 24.3555 8.47852 24.457C8.61133 24.5586 8.71289 24.6914 8.7832 24.8555C9.01758 24.8945 9.24414 24.957 9.46289 25.043C9.68945 25.1211 9.92383 25.1602 10.166 25.1602C10.3457 25.1602 10.5176 25.1133 10.6816 25.0195C10.752 25.0352 10.8223 25.0625 10.8926 25.1016C10.9707 25.1406 11.0527 25.1602 11.1387 25.1602C11.209 25.1602 11.2793 25.125 11.3496 25.0547C11.3652 25.0781 11.3809 25.1094 11.3965 25.1484C11.4121 25.1797 11.4395 25.1953 11.4785 25.1953C11.4941 25.1953 11.5059 25.1953 11.5137 25.1953C11.5293 25.1875 11.541 25.1836 11.5488 25.1836V25.3711C11.5488 25.4414 11.5527 25.5117 11.5605 25.582C11.5684 25.6445 11.584 25.7109 11.6074 25.7812C11.5449 25.7812 11.4941 25.793 11.4551 25.8164L11.3496 25.8867C11.3184 25.9102 11.2793 25.9297 11.2324 25.9453C11.1855 25.9609 11.123 25.9609 11.0449 25.9453C10.998 25.9531 10.9668 25.9766 10.9512 26.0156C10.9434 26.0547 10.9199 26.0859 10.8809 26.1094C10.8262 26.1484 10.752 26.168 10.6582 26.168C10.5723 26.168 10.4941 26.1875 10.4238 26.2266L10.0254 26.25C9.89258 26.2578 9.75977 26.2617 9.62695 26.2617C9.54883 26.2617 9.45508 26.2617 9.3457 26.2617C9.23633 26.2539 9.12695 26.2461 9.01758 26.2383C8.9082 26.2227 8.80273 26.207 8.70117 26.1914C8.59961 26.168 8.51367 26.1406 8.44336 26.1094C8.18555 25.9844 7.93555 25.8281 7.69336 25.6406C7.45117 25.4531 7.2168 25.2695 6.99023 25.0898L6.80273 24.9258C6.74023 24.8711 6.67383 24.8203 6.60352 24.7734C6.5957 24.7656 6.57617 24.7617 6.54492 24.7617C6.50586 24.7617 6.4707 24.7695 6.43945 24.7852C6.41602 24.8008 6.38867 24.8086 6.35742 24.8086C6.32617 24.8086 6.31055 24.7969 6.31055 24.7734C6.06836 25.0078 5.8418 25.2578 5.63086 25.5234L4.99805 26.3203C4.99805 26.3828 5.01367 26.4336 5.04492 26.4727L5.13867 26.5781C5.16992 26.6094 5.19727 26.6445 5.2207 26.6836C5.25195 26.7227 5.26758 26.7734 5.26758 26.8359C5.26758 26.8828 5.26367 26.9219 5.25586 26.9531C5.18555 26.9766 5.10352 26.9922 5.00977 27C4.91602 27.0078 4.81836 27.0195 4.7168 27.0352C4.62305 27.0586 4.53711 27.0859 4.45898 27.1172C4.38086 27.1562 4.32617 27.2148 4.29492 27.293C4.24023 27.2773 4.18945 27.2617 4.14258 27.2461C4.10352 27.2305 4.05273 27.2266 3.99023 27.2344C3.92773 27.1562 3.86523 27.0781 3.80273 27C3.73242 26.9141 3.66992 26.8242 3.61523 26.7305C3.60742 26.6758 3.60352 26.625 3.60352 26.5781C3.5957 26.5234 3.5918 26.4688 3.5918 26.4141C3.5918 26.2344 3.61914 26.0742 3.67383 25.9336C3.72852 25.7852 3.79102 25.6328 3.86133 25.4766C3.99414 25.4141 4.11523 25.3477 4.22461 25.2773C4.3418 25.1992 4.41992 25.0859 4.45898 24.9375C4.56055 24.9297 4.64258 24.8984 4.70508 24.8438C4.77539 24.7812 4.83789 24.7148 4.89258 24.6445C4.95508 24.5742 5.01758 24.5117 5.08008 24.457C5.14258 24.4023 5.22852 24.3672 5.33789 24.3516C5.33789 24.3359 5.33398 24.3203 5.32617 24.3047C5.32617 24.2891 5.32617 24.2734 5.32617 24.2578C5.32617 24.2031 5.33789 24.1641 5.36133 24.1406C5.38477 24.1094 5.41211 24.0859 5.44336 24.0703C5.48242 24.0469 5.51758 24.0273 5.54883 24.0117C5.58789 23.9961 5.61914 23.9688 5.64258 23.9297C5.61133 23.8438 5.57617 23.7617 5.53711 23.6836C5.50586 23.6055 5.4668 23.5312 5.41992 23.4609C5.3418 23.3438 5.25977 23.2305 5.17383 23.1211L4.91602 22.793C4.87695 22.7383 4.82617 22.6914 4.76367 22.6523C4.70898 22.6055 4.66211 22.5508 4.62305 22.4883C4.58398 22.4258 4.56055 22.3555 4.55273 22.2773C4.54492 22.1992 4.52539 22.1289 4.49414 22.0664C4.45508 21.9883 4.4043 21.918 4.3418 21.8555C4.28711 21.7852 4.25977 21.6992 4.25977 21.5977C4.25977 21.543 4.27148 21.4922 4.29492 21.4453C4.20898 21.3594 4.14648 21.2578 4.10742 21.1406C4.06836 21.0156 4.04883 20.8945 4.04883 20.7773C4.04883 20.668 4.06445 20.5586 4.0957 20.4492C4.12695 20.332 4.17773 20.2266 4.24805 20.1328H4.35352C4.39258 20.1328 4.41211 20.1211 4.41211 20.0977C4.45898 20.1289 4.50977 20.1562 4.56445 20.1797C4.62695 20.2031 4.66211 20.2461 4.66992 20.3086C4.74023 20.3164 4.81055 20.3281 4.88086 20.3438L5.0918 20.3906C5.2168 20.5781 5.33008 20.7695 5.43164 20.9648C5.5332 21.1602 5.63477 21.3555 5.73633 21.5508C5.8457 21.7461 5.95898 21.9375 6.07617 22.125C6.19336 22.3125 6.32617 22.4883 6.47461 22.6523C6.5918 22.6055 6.69336 22.5352 6.7793 22.4414C6.86523 22.3477 6.94336 22.25 7.01367 22.1484C7.0918 22.0469 7.17383 21.9492 7.25977 21.8555C7.3457 21.7617 7.44727 21.6914 7.56445 21.6445C7.55664 21.6367 7.55273 21.625 7.55273 21.6094C7.55273 21.5703 7.56445 21.543 7.58789 21.5273C7.61914 21.5039 7.62695 21.4609 7.61133 21.3984C7.76758 21.2891 7.91211 21.1719 8.04492 21.0469C8.17773 20.9219 8.27148 20.7578 8.32617 20.5547H8.49023C8.67773 20.3047 8.86523 20.0547 9.05273 19.8047C9.24805 19.5547 9.4668 19.3281 9.70898 19.125V18.9609C9.83398 18.8828 9.94336 18.793 10.0371 18.6914C10.1309 18.582 10.2207 18.4727 10.3066 18.3633C10.3926 18.2461 10.4746 18.1289 10.5527 18.0117C10.6387 17.8945 10.7363 17.7891 10.8457 17.6953C10.9238 17.7344 11.0059 17.7617 11.0918 17.7773C11.1777 17.793 11.2598 17.8125 11.3379 17.8359C11.4238 17.8594 11.502 17.8906 11.5723 17.9297C11.6504 17.9609 11.7168 18.0117 11.7715 18.082Z" fill="white"/>
<path d="M20 7.5H26" stroke="white"/>
<circle cx="23" cy="23" r="11" fill="#DD0031"/>
<path d="M27.0254 20.8906C27.0254 20.9766 27.002 21.0508 26.9551 21.1133C26.916 21.1758 26.8691 21.2383 26.8145 21.3008C26.7676 21.3633 26.7246 21.4336 26.6855 21.5117C26.6465 21.5898 26.6348 21.6875 26.6504 21.8047C26.541 21.8672 26.4395 21.918 26.3457 21.957C26.2598 21.9961 26.1699 22.0312 26.0762 22.0625C25.9902 22.0938 25.8965 22.1172 25.7949 22.1328C25.7012 22.1406 25.5918 22.1445 25.4668 22.1445H25.2676C25.1582 22.082 25.0723 22 25.0098 21.8984C24.9551 21.7891 24.8848 21.6875 24.7988 21.5938H24.7402C24.6777 21.5938 24.6309 21.582 24.5996 21.5586C24.5684 21.5273 24.5254 21.4961 24.4707 21.4648C24.3613 21.4727 24.2363 21.4766 24.0957 21.4766C23.9551 21.4688 23.8105 21.4688 23.6621 21.4766C23.5215 21.4844 23.3848 21.5 23.252 21.5234C23.1191 21.5469 23.0059 21.5859 22.9121 21.6406C22.6855 21.6172 22.4551 21.6055 22.2207 21.6055C21.9395 21.6055 21.6387 21.625 21.3184 21.6641C20.998 21.7031 20.7012 21.7773 20.4277 21.8867C20.3809 21.8789 20.334 21.875 20.2871 21.875H20.1465C19.8809 21.875 19.6309 21.9258 19.3965 22.0273C19.1699 22.1211 18.9395 22.2305 18.7051 22.3555H18.6465C18.5293 22.3555 18.416 22.3711 18.3066 22.4023C18.1973 22.4336 18.0879 22.4727 17.9785 22.5195C17.877 22.5586 17.7715 22.5977 17.6621 22.6367C17.5527 22.6758 17.4395 22.707 17.3223 22.7305C17.2676 22.7461 17.2168 22.7656 17.1699 22.7891C17.1309 22.8125 17.084 22.8242 17.0293 22.8242C16.9277 22.8242 16.834 22.7969 16.748 22.7422C16.6699 22.6875 16.5996 22.6172 16.5371 22.5312C16.4824 22.4453 16.4395 22.3516 16.4082 22.25C16.377 22.1484 16.3613 22.0547 16.3613 21.9688C16.3613 21.7109 16.459 21.5039 16.6543 21.3477H16.9941C17.127 21.2773 17.2637 21.2227 17.4043 21.1836C17.5449 21.1445 17.6855 21.1094 17.8262 21.0781L18.248 20.9727C18.3887 20.9336 18.5293 20.8906 18.6699 20.8438H18.7168C18.8496 20.8438 18.9824 20.8281 19.1152 20.7969C19.248 20.7578 19.3809 20.7188 19.5137 20.6797C19.5527 20.6641 19.5996 20.6484 19.6543 20.6328C19.709 20.6094 19.7598 20.5938 19.8066 20.5859C19.8848 20.5781 19.959 20.5781 20.0293 20.5859C20.1074 20.5859 20.1816 20.582 20.252 20.5742L21.0254 20.5391C21.3926 20.5234 21.7559 20.4883 22.1152 20.4336C22.4824 20.3789 22.8457 20.3203 23.2051 20.2578C23.2676 20.2734 23.3223 20.293 23.3691 20.3164C23.4238 20.3398 23.4824 20.3594 23.5449 20.375C23.6855 20.3047 23.8379 20.2812 24.002 20.3047C24.166 20.3203 24.3223 20.3047 24.4707 20.2578C24.6113 20.2734 24.752 20.2891 24.8926 20.3047C25.041 20.3125 25.1855 20.3164 25.3262 20.3164C25.4746 20.3164 25.6191 20.3164 25.7598 20.3164C25.9004 20.3086 26.0449 20.3008 26.1934 20.293C26.3262 20.3789 26.459 20.4531 26.5918 20.5156C26.7324 20.5703 26.8691 20.6328 27.002 20.7031C27.0098 20.7422 27.0137 20.7773 27.0137 20.8086C27.0215 20.832 27.0254 20.8594 27.0254 20.8906ZM29.0996 23.6211C29.0996 23.7305 29.0801 23.8359 29.041 23.9375C29.0098 24.0312 28.9863 24.1328 28.9707 24.2422C28.8848 24.2891 28.7949 24.3438 28.7012 24.4062C28.6074 24.4688 28.5137 24.5 28.4199 24.5C28.3965 24.5 28.3535 24.4922 28.291 24.4766C28.2285 24.4531 28.1582 24.4297 28.0801 24.4062C28.002 24.3828 27.9238 24.3594 27.8457 24.3359C27.7754 24.3125 27.7168 24.2969 27.6699 24.2891C27.6309 24.3203 27.584 24.3398 27.5293 24.3477C27.4746 24.3477 27.4355 24.3711 27.4121 24.418C27.3652 24.4023 27.3184 24.3945 27.2715 24.3945H27.1426C26.9082 24.3945 26.6777 24.418 26.4512 24.4648C26.2246 24.5117 25.9941 24.5352 25.7598 24.5352C25.6504 24.5352 25.5449 24.5234 25.4434 24.5C25.0684 24.5703 24.6973 24.6172 24.3301 24.6406C23.9629 24.6641 23.5879 24.6836 23.2051 24.6992C23.0176 24.8086 22.8105 24.8672 22.584 24.875C22.3652 24.8828 22.1543 24.9023 21.9512 24.9336C21.8652 24.9492 21.7871 24.9648 21.7168 24.9805C21.6465 24.9961 21.5723 25.0156 21.4941 25.0391H21.4473C21.4004 25.0391 21.3613 25.0312 21.3301 25.0156C21.3066 24.9922 21.2754 24.9727 21.2363 24.957C21.0723 25.0586 20.9355 25.1211 20.8262 25.1445C20.7246 25.1602 20.5801 25.168 20.3926 25.168C20.3535 25.168 20.2754 25.1836 20.1582 25.2148C20.041 25.2461 19.9512 25.2695 19.8887 25.2852C19.7402 25.3086 19.5762 25.332 19.3965 25.3555C19.2168 25.3789 19.0371 25.4102 18.8574 25.4492C18.6777 25.4805 18.5059 25.5234 18.3418 25.5781C18.1777 25.6328 18.0332 25.707 17.9082 25.8008C17.8145 25.8164 17.7168 25.8242 17.6152 25.8242C17.5215 25.8164 17.4238 25.8242 17.3223 25.8477C17.2598 25.8086 17.2051 25.7617 17.1582 25.707C17.1191 25.6445 17.0801 25.582 17.041 25.5195L16.9238 25.332C16.8848 25.2695 16.834 25.2148 16.7715 25.168C16.873 25.0586 16.9629 24.9414 17.041 24.8164C17.1191 24.6914 17.2246 24.5977 17.3574 24.5352H17.4863C17.5176 24.5352 17.5488 24.5391 17.5801 24.5469C17.6113 24.5469 17.6387 24.5586 17.6621 24.582C18.084 24.4336 18.5059 24.3203 18.9277 24.2422C19.3574 24.1641 19.791 24.0977 20.2285 24.043C20.6035 23.9961 20.9785 23.9453 21.3535 23.8906C21.7285 23.8281 22.0957 23.7344 22.4551 23.6094C22.4863 23.625 22.5176 23.6367 22.5488 23.6445C22.5801 23.6445 22.6113 23.6445 22.6426 23.6445C22.7598 23.6445 22.8652 23.6211 22.959 23.5742H23.1113C23.502 23.5742 23.8887 23.5391 24.2715 23.4688C24.6543 23.3984 25.0449 23.3516 25.4434 23.3281C25.5293 23.3203 25.6152 23.3203 25.7012 23.3281C25.7949 23.3281 25.8887 23.3281 25.9824 23.3281C26.0605 23.3281 26.1387 23.3242 26.2168 23.3164C26.2949 23.3008 26.373 23.2734 26.4512 23.2344H26.6504C26.7363 23.2344 26.8262 23.2344 26.9199 23.2344C27.0215 23.2266 27.1152 23.2227 27.2012 23.2227C27.2637 23.2227 27.334 23.2266 27.4121 23.2344C27.498 23.2422 27.5684 23.2734 27.623 23.3281C27.8184 23.25 28.0059 23.2109 28.1855 23.2109C28.2949 23.2109 28.4043 23.2188 28.5137 23.2344L28.8418 23.2812L29.0996 23.5742V23.6211Z" fill="white"/>
</svg>
