<svg width="114" height="115" viewBox="0 0 114 115" fill="none" xmlns="http://www.w3.org/2000/svg">
<path fill-rule="evenodd" clip-rule="evenodd" d="M72.2521 111.937C96.3265 105.267 114 83.1975 114 57C114 25.5198 88.4802 0 57 0C25.5198 0 0 25.5198 0 57C0 84.054 18.8479 106.706 44.1291 112.541V114H57H72.2521V111.937ZM72.2521 111.937V94.2439C71.9049 93.3293 70.8981 90.8415 69.6481 88.2073C93.3965 87.7683 96.2088 64.9756 94.6465 53.6341C94.6465 51.622 93.5007 46.061 88.9177 39.9146C91.8341 33.3293 89.7857 26.561 88.3969 24C85.0985 24 77.2518 25.4268 72.2521 31.1341C58.9197 25.8659 47.601 28.939 43.6083 31.1341C41.6987 28.7561 35.7965 24 27.4645 24C24.9647 30.1463 26.4229 37.5366 27.4645 40.4634C25.9018 41.1951 22.5682 44.8537 21.7349 53.6341C21.3182 83.4878 38.574 89.122 47.254 88.2073C47.4276 88.5732 47.6706 89.4146 47.254 89.8537C46.8373 90.2927 43.9556 95.5244 42.5668 98.0854H37.8796C37.7277 98.0854 37.5663 98.0877 37.3966 98.0902C35.2393 98.1214 31.7298 98.1722 29.0261 93.6951C25.3805 87.6585 22.7763 86.0122 18.61 84.9146C15.2768 84.0366 15.8324 86.0122 16.5268 87.1098C18.7836 88.0244 23.4013 91.061 23.8179 95.8902C24.2346 100.72 29.1995 104.122 31.6299 105.22H44.1291V112.541C48.2653 113.495 52.5737 114 57 114C62.2827 114 67.3976 113.281 72.2521 111.937Z" fill="white"/>
</svg>
