<svg width="128" height="128" viewBox="0 0 128 128" fill="none" xmlns="http://www.w3.org/2000/svg">
<path fill-rule="evenodd" clip-rule="evenodd" d="M10 0C4.47715 0 0 4.47715 0 10V118C0 123.523 4.47715 128 10 128H118C123.523 128 128 123.523 128 118V10C128 4.47715 123.523 0 118 0H10ZM29 42C36.732 42 43 35.732 43 28C43 20.268 36.732 14 29 14C21.268 14 15 20.268 15 28C15 35.732 21.268 42 29 42ZM18 50C18 48.3431 19.3431 47 21 47H37C38.6569 47 40 48.3431 40 50V111C40 112.657 38.6569 114 37 114H21C19.3431 114 18 112.657 18 111V50ZM70 111V77.0128C71.1298 70.6441 74.3975 63.3918 82 64C92 64.8 93.1667 76 92.5 81.5V111C92.6667 111.833 93.4 113.5 95 113.5H112.5C113.167 113.333 114.5 112.6 114.5 111V69C114.333 61.3333 109.7 46 92.5 46C77.6739 46 71.6897 50.7057 70 54.0328V50C70 48.3431 68.6569 47 67 47H51C49.3431 47 48 48.3431 48 50V111C48 112.657 49.3431 114 51 114H67C68.6569 114 70 112.657 70 111Z" fill="white"/>
</svg>
